<svg xmlns="http://www.w3.org/2000/svg" xmlns:xlink="http://www.w3.org/1999/xlink" width="1200" height="1200" viewBox="0 0 1200 1200"><g transform="translate(600 600) scale(-0.69 0.69) rotate(0) translate(-600 -600)" style="fill:#000000"><svg fill="#000000" xmlns="http://www.w3.org/2000/svg" xmlns:xlink="http://www.w3.org/1999/xlink" version="1.1" x="0px" y="0px" viewBox="0 0 100 100" enable-background="new 0 0 100 100" xml:space="preserve"><g><path d="M73.1,58.2c-0.5,0.7-1.9,4.5-1.5,8.7c0.4,4.4,3.2,24.1,3.8,28.1H70c-0.8-6-3.3-23.2-3.7-27.6c-0.4-5.1,1.1-11.2,3.3-13   c5.1-4.6,8.1-10.9,8.4-17.8c0.3-6.9-2.2-13.4-6.9-18.5c-4.7-5-11.1-7.9-17.9-8.1c-6.6-0.2-12.8,2.2-17.7,6.6   c-4.8,4.5-7.7,10.6-8,17.1c-0.1,2,0,3.9,0.4,5.8c0.3,1.6,0,3.2-0.8,4.6c-1.2,2-4,7.1-5.1,11.3c1.1,0.2,3.2,0.3,5.1,0.4l2.4,0.1   L30.3,68c0.1,2.6,0.6,4.5,1.8,5.5c1.2,1,3.3,1.4,6.2,1l0.2,0l2-0.1c1.3-0.1,2.5,0.4,3.4,1.3c0.9,0.9,1.4,2.3,1.4,3.6L44.6,95h-5.3   l0.6-15.2l-1.1,0c-4.5,0.5-7.8-0.3-10.2-2.3c-2.3-2-3.5-5.1-3.6-9.3l-0.5-7.3c-3.6-0.2-5.9-0.6-7.2-2.4c-0.8-1.1-1-2.5-0.6-4.2   c1.3-4.6,4.1-10,5.8-12.9c0.2-0.3,0.3-0.7,0.2-1c-0.4-2.3-0.6-4.7-0.5-7c0.4-7.9,3.8-15.3,9.7-20.7c5.9-5.4,13.5-8.3,21.4-8   c8.3,0.2,15.9,3.7,21.6,9.8c5.7,6.1,8.6,14,8.3,22.2C82.9,45,79.3,52.7,73.1,58.2z"></path></g><g><path d="M69.7,45.2c-6.4,6.3-8.2-5.7-18.8-8.3c-7.4-1.8-20.2-2.9-14.2-14c5-9.2,18-10.7,27.1-4.5S77.2,37.9,69.7,45.2z"></path></g></svg></g></svg>